<?xml version="1.0" standalone="no"?>
<!DOCTYPE svg PUBLIC "-//W3C//DTD SVG 20010904//EN"
 "http://www.w3.org/TR/2001/REC-SVG-20010904/DTD/svg10.dtd">
<svg version="1.0" xmlns="http://www.w3.org/2000/svg"
 width="225.000000pt" height="225.000000pt" viewBox="0 0 225.000000 225.000000"
 preserveAspectRatio="xMidYMid meet">
<metadata>
Created by potrace 1.11, written by Peter Selinger 2001-2013
</metadata>
<g transform="translate(0.000000,225.000000) scale(0.100000,-0.100000)"
fill="#000000" stroke="none">
<path d="M577 2240 c-44 -13 -95 -57 -120 -103 -22 -42 -22 -43 -25 -624 l-3
-583 -25 0 c-97 0 -159 -90 -119 -174 13 -27 14 -40 6 -49 -6 -8 -14 -31 -19
-52 -6 -33 -13 -40 -37 -45 -133 -28 -230 -153 -229 -295 2 -115 55 -205 155
-260 l54 -30 357 -3 c393 -3 402 -2 433 58 19 37 19 89 0 117 -13 19 -13 24 0
50 8 15 15 34 15 41 0 6 11 12 25 12 23 0 25 -4 25 -42 0 -88 71 -191 160
-232 43 -20 61 -21 430 -21 l385 0 51 27 c59 31 98 73 128 138 20 44 21 58 21
590 0 608 3 577 -72 660 -62 70 -117 90 -250 90 l-111 0 -4 193 c-2 158 -6
197 -20 223 -10 18 -77 93 -150 167 -107 110 -141 138 -173 146 -48 13 -846
13 -888 1z m863 -198 c0 -95 4 -143 13 -155 10 -14 35 -17 147 -19 l135 -3 3
-177 2 -177 -243 -3 -244 -3 -48 -30 c-57 -35 -110 -100 -125 -153 -6 -23 -10
-210 -10 -494 l0 -458 -34 0 c-43 0 -52 13 -32 42 20 29 20 81 1 119 -14 27
-14 32 0 51 19 28 19 80 1 116 -12 23 -12 31 0 52 18 34 17 86 -3 121 -32 53
-60 59 -292 59 l-212 0 3 579 c3 568 3 580 24 608 46 63 47 63 502 63 l412 0
0 -138z m221 -74 l20 -28 -80 0 -81 0 0 87 0 87 61 -59 c33 -33 69 -72 80 -87z
m370 -529 c52 -16 108 -64 130 -113 17 -38 19 -77 19 -567 l0 -527 -28 -53
c-22 -43 -38 -59 -82 -81 l-54 -29 -372 3 -372 3 -44 30 c-23 17 -53 49 -65
70 l-23 40 0 538 c0 592 -2 574 63 635 61 59 77 61 451 62 226 0 351 -4 377
-11z m-1099 -596 c22 -20 23 -46 2 -67 -13 -14 -53 -16 -286 -16 -239 0 -274
2 -290 17 -24 22 -23 49 4 67 19 14 64 16 287 16 232 0 267 -2 283 -17z m2
-169 c22 -22 20 -50 -6 -68 -31 -22 -340 -23 -412 -1 -27 8 -76 15 -108 15
-66 0 -83 17 -53 50 17 19 33 20 291 20 234 0 275 -2 288 -16z m-445 -134 c95
-27 163 -118 163 -218 1 -132 -94 -232 -222 -232 -44 0 -54 4 -81 32 -96 103
-105 258 -21 367 15 20 26 40 24 44 -1 5 1 6 6 3 4 -2 14 -1 22 5 20 12 67 11
109 -1z m-315 -45 c-9 -14 -24 -25 -33 -24 -13 0 -14 2 -1 6 8 4 21 14 28 25
20 27 25 22 6 -7z m760 9 c19 -18 21 -45 4 -62 -14 -14 -238 -17 -238 -3 0 4
-11 25 -25 45 l-24 36 134 0 c108 0 137 -3 149 -16z m-821 -151 c-7 -2 -19 -2
-25 0 -7 3 -2 5 12 5 14 0 19 -2 13 -5z m720 -10 c-85 -4 -92 -5 -96 -26 -4
-18 -4 -18 -6 6 l-1 27 98 -2 97 -2 -92 -3z m114 -45 c-3 -8 -6 -5 -6 6 -1 11
2 17 5 13 3 -3 4 -12 1 -19z m-74 -35 c-29 -2 -77 -2 -105 0 -29 2 -6 3 52 3
58 0 81 -1 53 -3z m-608 -103 c10 -11 16 -20 13 -20 -3 0 -13 9 -23 20 -10 11
-16 20 -13 20 3 0 13 -9 23 -20z m-84 -27 c13 -17 13 -17 -6 -3 -11 8 -22 16
-24 17 -2 2 0 3 6 3 6 0 17 -8 24 -17z"/>
<path d="M703 1793 c-23 -9 -15 -52 10 -58 12 -3 154 -4 316 -3 261 3 295 5
304 20 8 12 7 21 -2 32 -12 14 -51 16 -315 15 -165 0 -307 -3 -313 -6z"/>
<path d="M1423 1793 c-18 -7 -16 -50 3 -57 9 -3 38 -6 64 -6 38 0 52 4 60 19
16 31 -12 51 -68 50 -26 0 -53 -3 -59 -6z"/>
<path d="M694 1615 c-14 -35 3 -45 80 -45 59 0 75 3 80 16 12 31 -13 44 -86
44 -52 0 -70 -4 -74 -15z"/>
<path d="M934 1615 c-4 -8 -4 -22 0 -30 5 -13 45 -15 308 -13 l303 3 0 25 0
25 -303 3 c-263 2 -303 0 -308 -13z"/>
<path d="M817 1504 c-4 -4 -7 -18 -7 -31 0 -13 -6 -23 -14 -23 -7 0 -25 -12
-40 -26 -21 -22 -26 -36 -26 -76 0 -42 5 -54 29 -77 16 -15 47 -33 70 -39 41
-13 81 -52 81 -81 0 -9 -7 -27 -16 -39 -21 -30 -88 -31 -120 -1 -26 25 -54 19
-54 -10 0 -24 25 -50 61 -63 17 -6 29 -18 31 -31 4 -30 52 -31 56 -1 2 12 17
27 36 36 64 31 83 126 38 188 -19 25 -32 33 -107 67 -31 14 -41 24 -43 46 -2
16 2 35 9 43 14 17 81 19 111 3 16 -8 24 -8 35 3 21 22 5 47 -37 58 -28 8 -40
16 -42 33 -3 22 -36 35 -51 21z"/>
<path d="M1281 1354 c-34 -24 -51 -75 -51 -154 0 -135 35 -170 168 -170 60 0
83 4 93 16 20 24 -1 48 -47 54 l-39 5 0 95 0 95 289 3 c205 2 293 -1 302 -9
18 -15 19 -160 2 -177 -9 -9 -69 -12 -209 -12 -213 0 -233 -5 -209 -49 10 -20
19 -21 221 -21 l211 0 34 34 34 34 0 102 0 102 -34 34 -34 34 -354 0 c-311 0
-356 -2 -377 -16z"/>
<path d="M1251 944 c-17 -21 -21 -41 -21 -99 0 -58 4 -78 21 -99 19 -25 25
-26 109 -26 85 0 89 1 110 28 19 23 21 37 18 103 -5 109 -15 119 -129 119 -83
0 -89 -1 -108 -26z"/>
<path d="M1551 944 c-17 -22 -21 -41 -21 -104 0 -67 3 -79 23 -98 20 -19 35
-22 103 -22 117 0 124 7 124 125 0 118 -7 125 -126 125 -77 0 -84 -2 -103 -26z"/>
<path d="M1851 944 c-17 -21 -21 -41 -21 -99 0 -58 4 -78 21 -99 19 -25 25
-26 108 -26 117 0 126 9 126 127 0 112 -11 123 -130 123 -78 0 -85 -2 -104
-26z m169 -99 l0 -55 -60 0 -60 0 0 55 0 55 60 0 60 0 0 -55z"/>
<path d="M1279 669 c-38 -14 -52 -56 -47 -140 5 -96 21 -109 128 -109 107 0
123 13 128 109 5 87 -9 126 -50 140 -38 13 -123 13 -159 0z"/>
<path d="M1573 670 c-33 -14 -43 -42 -43 -125 0 -67 3 -79 25 -100 21 -22 33
-25 95 -25 69 0 107 11 122 34 4 6 8 50 8 97 0 111 -11 123 -113 126 -40 2
-82 -1 -94 -7z"/>
<path d="M1885 667 c-49 -23 -55 -49 -55 -258 0 -207 6 -235 55 -257 14 -7 50
-12 80 -12 46 0 60 5 87 29 l33 29 0 211 0 211 -27 27 c-22 22 -38 27 -85 30
-35 2 -70 -2 -88 -10z m133 -246 c2 -130 -1 -188 -9 -198 -8 -9 -28 -13 -58
-11 l-46 3 -3 185 c-1 101 0 190 3 198 3 9 20 12 57 10 l53 -3 3 -184z"/>
<path d="M1251 364 c-17 -22 -21 -41 -21 -101 0 -65 3 -77 25 -98 21 -22 33
-25 103 -25 112 0 126 12 130 117 3 68 1 81 -18 106 -21 26 -25 27 -110 27
-84 0 -90 -1 -109 -26z"/>
<path d="M1550 370 c-17 -17 -20 -33 -20 -100 0 -73 3 -83 25 -105 22 -22 32
-25 105 -25 111 0 120 10 120 128 0 116 -6 122 -123 122 -74 0 -90 -3 -107
-20z"/>
<path d="M383 461 c-60 -72 -52 -121 27 -161 22 -11 40 -27 40 -35 0 -18 -33
-20 -59 -3 -25 15 -51 4 -51 -24 0 -20 73 -98 91 -98 4 0 26 19 48 43 33 34
41 49 41 80 0 54 -15 75 -66 98 -54 22 -50 44 5 34 28 -4 41 -2 50 9 16 19 8
44 -16 53 -10 4 -24 15 -31 25 -20 28 -44 21 -79 -21z"/>
</g>
</svg>
